inDegrees=no
num_controls=7
num_derivatives=13
num_iterations=84
num_multipliers=7
num_parameters=0
num_slacks=7
num_states=26
objective=0.333884
objective_accelerations=0.037581
objective_balance=0.001362
objective_effort=0.027414
objective_height=0.266055
objective_ligament=0.001471
solver_duration=870.738839
status=Solve_Succeeded
success=true
DataType=double
version=3
OpenSimVersion=4.5
endheader
time	/jointset/ground_pelvis/pelvis_tilt/value	/jointset/ground_pelvis/pelvis_tx/value	/jointset/ground_pelvis/pelvis_ty/value	/jointset/hip_r/hip_flexion_r/value	/jointset/hip_r/hip_adduction_r/value	/jointset/hip_r/hip_rotation_r/value	/jointset/back/lumbar_extension/value	/jointset/patellofemoral_r/patellar_flexion_r/value	/jointset/knee_r/knee_flexion_r/value	/jointset/knee_r/knee_adduction_r/value	/jointset/knee_r/knee_rotation_r/value	/jointset/ankle_r/ankle_angle_r/value	/jointset/subtalar_r/subtalar_angle_r/value	/jointset/ground_pelvis/pelvis_tilt/speed	/jointset/ground_pelvis/pelvis_tx/speed	/jointset/ground_pelvis/pelvis_ty/speed	/jointset/hip_r/hip_flexion_r/speed	/jointset/hip_r/hip_adduction_r/speed	/jointset/hip_r/hip_rotation_r/speed	/jointset/back/lumbar_extension/speed	/jointset/patellofemoral_r/patellar_flexion_r/speed	/jointset/knee_r/knee_flexion_r/speed	/jointset/knee_r/knee_adduction_r/speed	/jointset/knee_r/knee_rotation_r/speed	/jointset/ankle_r/ankle_angle_r/speed	/jointset/subtalar_r/subtalar_angle_r/speed	/forceset/tau_hip_flexion_r	/forceset/tau_hip_adduction_r	/forceset/tau_hip_rotation_r	/forceset/tau_knee_flexion_r	/forceset/tau_ankle_angle_r	/forceset/tau_subtalar_angle_r	/forceset/tau_lumbar_extension	lambda_cid13_p0	lambda_cid14_p0	lambda_cid14_p1	lambda_cid14_p2	lambda_cid14_p3	lambda_cid14_p4	lambda_cid14_p5	/jointset/ground_pelvis/pelvis_tilt/accel	/jointset/ground_pelvis/pelvis_tx/accel	/jointset/ground_pelvis/pelvis_ty/accel	/jointset/hip_r/hip_flexion_r/accel	/jointset/hip_r/hip_adduction_r/accel	/jointset/hip_r/hip_rotation_r/accel	/jointset/back/lumbar_extension/accel	/jointset/patellofemoral_r/patellar_flexion_r/accel	/jointset/knee_r/knee_flexion_r/accel	/jointset/knee_r/knee_adduction_r/accel	/jointset/knee_r/knee_rotation_r/accel	/jointset/ankle_r/ankle_angle_r/accel	/jointset/subtalar_r/subtalar_angle_r/accel	gamma_cid13_p0	gamma_cid14_p0	gamma_cid14_p1	gamma_cid14_p2	gamma_cid14_p3	gamma_cid14_p4	gamma_cid14_p5
1	-0.2829563803993864	-0.01021464451745364	0.6276364074503628	1.484363472075421	-0.238370648704562	-0.08516043424465294	-0.7853855788282759	1.518048967239007	1.518048967239006	-0.174469999830661	0.1735132211100849	0.4362362608652987	0.1756051925242379	0.07040957296106407	0.006312864896501446	0.01652202968049509	-0.1042216752927705	-0.001611165772518226	0.003851808196852509	-0.0004193977521442499	-0.01865381505136427	-0.01865381505136444	0.01124941023313584	-0.0001308354613208043	0.01437134360087157	0.004261203826396399	-0.3615784237247309	0.0419314685628241	0.007175244401914751	-0.435788442836869	-0.04259687407049848	0.002808877349737546	0.3716531802130597	-0.04093711437921108	-65.61032996554539	-14.52224615087127	7.596551356730171	7.815122976644763	-771.016020603481	57.16087365642899	1.391146996187791	0.1533622492035188	1.849001985804745	-5.599239037821575	0.2102670561491552	-0.3367782062908278	-0.1127188561335632	-5.015839661226532	-5.015839661226562	1.01017169613915	0.04240783041373518	-0.9967828799623564	-0.1077774424979339	1.802277253886031e-09	-1.890727071508848e-09	1.557384756776541e-08	1.463142941723308e-08	7.364825668428672e-09	-8.176416973981547e-09	2.872901581492716e-08
1.01	-0.282183899508643	-0.01014366981511054	0.6278939924188178	1.483042284596922	-0.2383763395607272	-0.08513586461552311	-0.7853925963316487	1.517611882471057	1.517611882471047	-0.1743039688485565	0.1735137270767224	0.4363302651705064	0.1756422340759175	0.08403490457027323	0.007903584993487828	0.03499883655488729	-0.1600053003119391	0.0004697577353892298	0.001091532714198695	-0.0007780386824566329	-0.06878110131153446	-0.06878110131153344	0.02199646930819377	0.0002256746320078234	0.004448419278550897	0.003149765845245748	-0.3625828882038981	0.04202432769198596	0.00727469469099616	-0.43601620641578	-0.04274111216862286	0.002767321383555743	0.3729886618481654	-0.04093451132964319	-65.71618717054017	-14.56446536084386	7.609720847139197	7.531126460380169	-772.0539843567196	57.16678921783027	1.340473278996165	0.1651545537928564	1.84759798444996	-5.566344448741924	0.2065255513634661	-0.2412363145291081	0.03347292510421851	-5.013868832917368	-5.013868832917151	1.112924385846319	0.03133196927849968	-0.9872127383981404	-0.1124168545700033	6.495602463635509e-09	3.455915548567461e-09	3.605205118387995e-08	4.596249229017858e-08	6.264151392876393e-09	-1.461233933268696e-08	8.379138057235852e-08
1.02	-0.2812767158946763	-0.01005614237902831	0.628336461045255	1.481163576825256	-0.2383613170711646	-0.08513801456028101	-0.7853970183169688	1.516672985695604	1.516672985695604	-0.1740292770011733	0.1735176100183853	0.4363256071265343	0.1756682432720565	0.09735011760784278	0.009623411644329737	0.05349876127706411	-0.2157257339221932	0.002531503373378519	-0.001492106579514777	9.970585061344934e-05	-0.1190162165519079	-0.1190162165519059	0.03298158328954021	0.0005445595447781465	-0.00536112624501905	0.00205473271824089	-0.3635873526831244	0.04211718682113052	0.007374144980122032	-0.4362439699946873	-0.04288535026674142	0.002725765417343778	0.3743241434832126	-0.04093827510583531	-65.82894398269706	-14.60220451708429	7.615678461804428	7.245456891596362	-773.2117735315755	57.21183383164232	1.329123281859871	0.1791835599746364	1.85362555536167	-5.586600756038661	0.2064314821655198	-0.3014509685027668	0.1345582365433496	-5.037405457267181	-5.037405457267237	1.057782677396845	0.03488279430207095	-0.9741071202121859	-0.1044964716687647	1.283484839361458e-08	1.585516106600365e-08	7.075982047134603e-08	9.580757349276019e-08	-5.144506188643255e-09	-1.873566411131114e-08	1.693589829554939e-07
1.03	-0.2802389737421103	-0.009950900615656171	0.6289637689244588	1.478729638670943	-0.2383256937395302	-0.08516538912155912	-0.7853851806754404	1.515231367215893	1.5152313672159	-0.1736439676812571	0.1735244085922456	0.4362229967995911	0.1756833232478935	0.1100368044898322	0.01143346336752908	0.07193850612096504	-0.2708794220035297	0.004597937172019639	-0.003977540735870281	0.002610365408865627	-0.1693083803418957	-0.1693083803418943	0.0440804471521014	0.0007998083393955432	-0.01518514685166263	0.0009575377583003883	-0.3645218545455179	0.04225970070303232	0.007471723406954635	-0.4356186555044065	-0.0438832574220728	0.002768290967150849	0.3755899413067868	-0.04096419381522075	-66.18225961884356	-14.61803780924184	7.586721811534804	7.317235835988136	-773.8524356837017	57.20088159058842	1.214220654234281	0.1831909276800498	1.835498090575689	-5.452376323949387	0.2074838802127781	-0.2212870860545414	0.3607012586967966	-5.025260859275055	-5.025260859275071	1.135958403848311	0.01858302405989971	-0.9901800564130948	-0.112855789746492	1.919088943298375e-08	2.832637191912721e-08	1.056127894085198e-07	1.458415732497259e-07	-1.665834727328508e-08	-2.283539095544469e-08	2.552378632735856e-07
1.04	-0.2790792088681545	-0.009827303345214594	0.6297747440804357	1.475749638937895	-0.2382692591596054	-0.08521745751377358	-0.7853379601496968	1.513286799294399	1.513286799294396	-0.1731476656900885	0.1735333070744527	0.4360214201614699	0.1756873263178132	0.1217546618864704	0.01329451305821798	0.09023221663178267	-0.3249380496755789	0.006693753030636952	-0.006430872766331002	0.007176282696347408	-0.2196061049083013	-0.2196061049083	0.05518011754116484	0.0009645412147442249	-0.02515438847921246	-0.0001606484652308899	-0.3654563564077432	0.04240221458493923	0.007569301833868284	-0.4349933410141145	-0.04488116457743133	0.002810816516952286	0.3768557391305168	-0.04099683144688791	-66.54262448286988	-14.6293530674501	7.550473886698009	7.386776626911409	-774.6157853449002	57.22945215663037	1.135357384789607	0.1893831534725569	1.824418688745005	-5.367588674181208	0.2123078941607578	-0.2950305433238125	0.5456097823892458	-5.038517612550751	-5.038517612550682	1.057943982697295	0.01677961044832609	-1.003151324393417	-0.1086947243869138	2.455529139683533e-08	3.422530632016134e-08	1.394078565101606e-07	1.879198133387677e-07	-1.668602043067892e-08	-3.329178413845847e-08	3.257859616159254e-07
1.05	-0.277804033949286	-0.009684678107729678	0.6307682790940949	1.472230956581906	-0.2381919021661023	-0.08529422498354947	-0.7852384589270324	1.510839226374065	1.510839226374073	-0.1725404699092764	0.1735436780798913	0.4357199289976922	0.1756799663342465	0.1334267315186211	0.01525531776709618	0.1084860126946129	-0.3789744318800627	0.008764001515775959	-0.008942035991813532	0.01270124382027446	-0.2699099046688291	-0.2699099046688169	0.06625732724610699	0.001122056510603958	-0.03511800179806665	-0.001323317868065253	-0.3660644619336275	0.04251597133620508	0.00772481936810317	-0.4341166730848621	-0.04572056967958391	0.002834414578543385	0.3776742226388868	-0.04101525360909197	-66.82553488514418	-14.63389478735207	7.51151077888859	7.38764210813597	-774.9867982850734	57.2211028461106	1.205102316158662	0.2031433612642752	1.827535157254085	-5.448056109260344	0.2023667078022925	-0.2320531195542713	0.5525315747723448	-5.026531015954292	-5.026531015952686	1.132347335155122	0.01715859206191165	-0.9890900628238858	-0.121793888582289	2.988870463957699e-08	3.991885708206771e-08	1.731698641794409e-07	2.297494359381868e-07	-1.635475084034632e-08	-4.394682314456222e-08	3.95854973021523e-07
